<?xml version="1.0" encoding="iso-8859-1"?>
<!-- Generator: Adobe Illustrator 19.0.0, SVG Export Plug-In . SVG Version: 6.00 Build 0)  -->
<svg version="1.1" id="Capa_1" xmlns="http://www.w3.org/2000/svg" xmlns:xlink="http://www.w3.org/1999/xlink" x="0px" y="0px"
	 viewBox="0 0 486.21 486.21" style="enable-background:new 0 0 486.21 486.21;" xml:space="preserve">
<g>
	<path style="fill:#AA5500;" d="M161.944,260.172v-74.714c0-56.889,45.89-102.779,102.779-102.779s102.779,45.89,102.779,102.779
		v74.714c28.065-26.927,45.132-64.853,45.132-106.572c0-81.92-66.37-147.911-147.911-147.911
		c-81.92,0-147.911,66.37-147.911,147.911C116.812,195.698,134.258,233.244,161.944,260.172z"/>
	<path style="fill:#AA5500;" d="M264.723,83.058c56.889,0,102.779,45.89,102.779,102.779v40.96v33.375
		c23.135-22.376,39.064-52.338,43.994-86.092c-9.861-72.059-71.68-127.431-146.394-127.431S128.569,102.021,118.708,174.08
		c4.172,33.754,20.101,63.715,43.236,86.092v-33.754v-40.96C161.944,128.948,208.213,83.058,264.723,83.058z"/>
</g>
<path style="fill:#33363A;" d="M367.502,265.861c-0.759,0-1.517,0-2.276-0.379c-2.276-0.759-3.413-3.034-3.413-5.31v-74.714
	c0-53.476-43.615-97.09-97.09-97.09s-97.09,43.615-97.09,97.09v74.714c0,2.276-1.517,4.172-3.413,5.31
	c-2.276,0.759-4.551,0.379-6.068-1.138c-30.341-29.203-47.028-68.646-47.028-110.744c0-84.575,69.025-153.6,153.6-153.6
	s153.6,69.025,153.6,153.6c0,42.477-16.687,81.541-47.028,110.744C370.536,265.481,369.019,265.861,367.502,265.861z M264.723,76.99
	c59.923,0,108.468,48.545,108.468,108.468v60.302c21.997-25.41,33.754-57.647,33.754-92.16c0-78.507-63.716-142.222-142.222-142.222
	S122.501,75.093,122.501,153.6c0,34.133,11.757,66.37,33.754,92.16v-60.302C156.255,125.535,204.8,76.99,264.723,76.99z"/>
<path style="fill:#F9C430;" d="M168.77,5.689v117.57c21.997,0,40.202-26.169,40.202-58.785S190.767,5.689,168.77,5.689z"/>
<path style="fill:#CC8E12;" d="M168.77,24.273v117.57c21.997,0,40.202-26.169,40.202-58.785
	C208.972,50.442,190.767,24.273,168.77,24.273z"/>
<path style="fill:#33363A;" d="M168.77,128.948c-3.034,0-5.689-2.655-5.689-5.689V5.689c0-3.034,2.655-5.689,5.689-5.689
	c25.41,0,45.89,28.824,45.89,64.474S194.181,128.948,168.77,128.948z M174.459,12.136v104.676
	c15.929-4.172,28.824-26.548,28.824-52.338S190.388,16.308,174.459,12.136z"/>
<path style="fill:#F9C430;" d="M361.055,5.689v117.57c-22.376,0-40.202-26.169-40.202-58.785S338.679,5.689,361.055,5.689z"/>
<path style="fill:#CC8E12;" d="M361.055,24.273v117.57c-21.997,0-40.202-26.169-40.202-58.785
	C320.853,50.442,338.679,24.273,361.055,24.273z"/>
<g>
	<path style="fill:#33363A;" d="M361.055,128.948c-25.79,0-45.89-28.444-45.89-64.474S335.265,0,361.055,0
		c3.034,0,5.689,2.655,5.689,5.689v117.57C366.744,126.293,364.089,128.948,361.055,128.948z M355.366,12.136
		c-16.308,4.172-28.824,26.169-28.824,52.338s12.516,48.166,28.824,52.338V12.136z"/>
	<path style="fill:#33363A;" d="M73.197,486.21c-25.79,0-46.649-20.859-46.649-46.649v-40.96c0-25.79,20.859-46.649,46.649-46.649
		s46.649,20.859,46.649,46.649c0,3.034-2.655,5.689-5.689,5.689c-3.034,0-5.689-2.655-5.689-5.689
		c0-19.342-15.929-35.271-35.271-35.271s-35.271,15.929-35.271,35.271v40.96c0,19.342,15.929,35.271,35.271,35.271
		c3.034,0,5.689,2.655,5.689,5.689S76.231,486.21,73.197,486.21z"/>
	<path style="fill:#33363A;" d="M86.471,453.215c-18.584,0-33.375-14.791-33.375-33.375v-6.068c0-3.034,2.655-5.689,5.689-5.689
		s5.689,2.655,5.689,5.689v6.068c0,12.136,9.861,21.997,21.997,21.997s21.997-9.861,21.997-21.997v-20.48
		c0-3.034,2.655-5.689,5.689-5.689c3.034,0,5.689,2.655,5.689,5.689v20.48C119.846,438.424,105.055,453.215,86.471,453.215z"/>
</g>
<path style="fill:#CC8E12;" d="M290.133,307.959H245.76c-95.194,0-172.563,77.369-172.563,172.563h216.936V307.959z"/>
<path style="fill:#AA5500;" d="M76.231,480.522h214.281V339.058H245.76C161.185,339.058,91.022,400.118,76.231,480.522z"/>
<path style="fill:#33363A;" d="M290.133,486.21H73.197c-3.034,0-5.689-2.655-5.689-5.689c0-98.228,80.024-178.252,178.252-178.252
	h44.373c3.034,0,5.689,2.655,5.689,5.689v172.563C295.822,483.556,293.167,486.21,290.133,486.21z M78.886,474.833h205.559V313.647
	H245.76C155.496,313.647,81.92,385.327,78.886,474.833z"/>
<path style="fill:#CC7415;" d="M264.723,23.893c-57.268,0-103.538,46.27-103.538,103.538v353.09H368.64v-353.09
	C368.261,70.163,321.991,23.893,264.723,23.893z"/>
<path style="fill:#A3580D;" d="M367.502,181.665c0,56.889-45.89,102.779-102.779,102.779s-102.779-45.89-102.779-102.779v-68.646
	c-0.759,4.551-1.138,9.481-1.138,14.412v191.526c26.548,26.169,63.336,42.477,103.538,42.477c40.581,0,76.99-16.308,103.538-42.477
	V127.431c0-4.93-0.379-9.861-1.138-14.412v68.646L367.502,181.665L367.502,181.665z"/>
<path style="fill:#CC8E12;" d="M264.723,83.058c-57.268,0-103.538,46.27-103.538,103.538v48.545
	c0,57.268,46.27,103.538,103.538,103.538s103.538-46.27,103.538-103.538v-48.545C368.261,129.327,321.991,83.058,264.723,83.058z"/>
<path style="fill:#E5A310;" d="M264.723,23.893c-57.268,0-103.538,46.27-103.538,103.538v48.545
	c0,57.268,46.27,103.538,103.538,103.538s103.538-46.27,103.538-103.538v-48.545C368.261,70.163,321.991,23.893,264.723,23.893z"/>
<path style="fill:#F9ECA0;" d="M337.92,186.596c-6.068-27.307-46.27-16.308-53.096-15.17c-6.827,1.138-6.068-8.344-6.068-8.344
	l-14.033,4.172l-14.033-4.172c0,0,0.379,9.481-6.068,8.344c-6.447-1.138-47.028-12.136-53.096,15.17
	c-6.447,28.824,10.619,43.994,43.994,71.301c22.376,18.584,28.065,20.859,29.203,20.48c1.138,0.379,6.827-1.896,29.203-20.48
	C327.301,230.21,344.367,215.04,337.92,186.596z"/>
<path style="fill:#F9C430;" d="M264.723,23.893c-57.268,0-103.538,46.27-103.538,103.538v23.893
	c0-57.268,46.27-103.538,103.538-103.538s103.538,46.27,103.538,103.538v-23.893C368.261,70.163,321.991,23.893,264.723,23.893z"/>
<g>
	<path style="fill:#33363A;" d="M368.64,486.21H161.185c-3.034,0-5.689-2.655-5.689-5.689v-353.09
		c0-60.302,48.924-109.227,109.227-109.227c59.923,0,109.227,48.924,109.606,109.227v353.09
		C374.329,483.556,371.674,486.21,368.64,486.21z M166.874,474.833h196.077V127.431c-0.379-53.855-44.373-97.849-98.228-97.849
		s-97.849,43.994-97.849,97.849V474.833z"/>
	<path style="fill:#33363A;" d="M203.283,158.53c-7.964,0-14.791-6.827-14.791-14.791c0-3.034,2.655-5.689,5.689-5.689
		s5.689,2.655,5.689,5.689c0,1.896,1.517,3.413,3.413,3.413c1.896,0,3.413-1.517,3.413-3.413c0-3.034,2.655-5.689,5.689-5.689
		s5.689,2.655,5.689,5.689C218.074,151.704,211.247,158.53,203.283,158.53z"/>
	<path style="fill:#33363A;" d="M326.542,158.53c-7.964,0-14.791-6.827-14.791-14.791c0-3.034,2.655-5.689,5.689-5.689
		s5.689,2.655,5.689,5.689c0,1.896,1.517,3.413,3.413,3.413c1.896,0,3.413-1.517,3.413-3.413c0-3.034,2.655-5.689,5.689-5.689
		c3.034,0,5.689,2.655,5.689,5.689C341.333,151.704,334.507,158.53,326.542,158.53z"/>
</g>
<path style="fill:#7F4109;" d="M292.409,156.634c0,7.206-5.689,12.895-12.895,12.895h-29.203c-7.206,0-12.895-5.689-12.895-12.895
	l0,0c0-7.206,5.689-12.895,12.895-12.895h28.824C286.341,143.739,292.409,149.428,292.409,156.634L292.409,156.634z"/>
<path style="fill:#AA5500;" d="M279.135,143.739h-29.203c-4.93,0-9.102,2.655-10.999,6.447c2.276,3.793,6.447,6.447,10.999,6.447
	h29.203c4.93,0,9.102-2.655,10.998-6.447C288.237,146.394,284.065,143.739,279.135,143.739z"/>
<g>
	<path style="fill:#33363A;" d="M279.514,175.218h-29.203c-10.24,0-18.584-8.344-18.584-18.584c0-10.24,8.344-18.584,18.584-18.584
		h28.824c10.619,0,18.963,8.344,18.963,18.584C298.098,166.874,289.754,175.218,279.514,175.218z M250.311,149.428
		c-4.172,0-7.206,3.034-7.206,7.206s3.034,7.206,7.206,7.206h29.203c4.172,0,7.206-3.034,7.206-7.206
		c0-3.793-3.413-7.206-7.585-7.206H250.311z"/>
	<path style="fill:#33363A;" d="M240.45,221.487c-16.687,0-29.961-13.274-29.961-29.961c0-3.034,2.655-5.689,5.689-5.689
		c3.034,0,5.689,2.655,5.689,5.689c0,10.24,8.344,18.584,18.584,18.584c10.24,0,18.584-8.344,18.584-18.584v-21.618
		c0-3.034,2.655-5.689,5.689-5.689s5.689,2.655,5.689,5.689v21.618C270.412,208.213,257.138,221.487,240.45,221.487z"/>
	<path style="fill:#33363A;" d="M288.996,221.487c-16.687,0-29.961-13.274-29.961-29.961v-21.618c0-3.034,2.655-5.689,5.689-5.689
		s5.689,2.655,5.689,5.689v21.618c0,10.24,8.344,18.584,18.584,18.584s18.584-8.344,18.584-18.584c0-3.034,2.655-5.689,5.689-5.689
		s5.689,2.655,5.689,5.689C318.957,208.213,305.683,221.487,288.996,221.487z"/>
</g>
<path style="fill:#CC8E12;" d="M192.285,343.23c-17.067,0-31.099,14.033-31.099,31.099v106.193h62.198V374.329
	C223.384,357.262,209.351,343.23,192.285,343.23z"/>
<path style="fill:#F9C430;" d="M192.285,343.23c-17.067,0-31.099,14.033-31.099,31.099v26.927c0-17.067,14.033-31.099,31.099-31.099
	s31.099,14.033,31.099,31.099v-26.927C223.384,357.262,209.351,343.23,192.285,343.23z"/>
<g>
	<path style="fill:#33363A;" d="M223.384,486.21h-62.198c-3.034,0-5.689-2.655-5.689-5.689V374.329
		c0-20.101,16.687-36.788,36.788-36.788s36.788,16.687,36.788,36.788v106.193C229.073,483.556,226.418,486.21,223.384,486.21z
		 M166.874,474.833h50.821V374.329c0-14.033-11.378-25.41-25.41-25.41c-14.033,0-25.41,11.378-25.41,25.41V474.833z"/>
	<path style="fill:#33363A;" d="M181.665,482.797c-3.034,0-5.689-2.655-5.689-5.689v-12.516c0-3.034,2.655-5.689,5.689-5.689
		c3.034,0,5.689,2.655,5.689,5.689v12.516C187.354,480.142,184.699,482.797,181.665,482.797z"/>
	<path style="fill:#33363A;" d="M202.524,482.797c-3.034,0-5.689-2.655-5.689-5.689v-12.516c0-3.034,2.655-5.689,5.689-5.689
		s5.689,2.655,5.689,5.689v12.516C208.213,480.142,205.559,482.797,202.524,482.797z"/>
</g>
<path style="fill:#CC8E12;" d="M337.162,343.23c-17.067,0-31.099,14.033-31.099,31.099v106.193h62.198V374.329
	C368.261,357.262,354.607,343.23,337.162,343.23z"/>
<path style="fill:#F9C430;" d="M337.162,343.23c-17.067,0-31.099,14.033-31.099,31.099v26.927c0-17.067,14.033-31.099,31.099-31.099
	c17.067,0,31.099,14.033,31.099,31.099v-26.927C368.261,357.262,354.607,343.23,337.162,343.23z"/>
<g>
	<path style="fill:#33363A;" d="M368.261,486.21h-62.198c-3.034,0-5.689-2.655-5.689-5.689V374.329
		c0-20.101,16.687-36.788,36.788-36.788c20.101,0,36.788,16.687,36.788,36.788v106.193
		C373.95,483.556,371.295,486.21,368.261,486.21z M311.751,474.833h50.821V374.329c0-14.033-11.378-25.41-25.41-25.41
		c-14.033,0-25.41,11.378-25.41,25.41V474.833z"/>
	<path style="fill:#33363A;" d="M326.922,482.797c-3.034,0-5.689-2.655-5.689-5.689v-12.516c0-3.034,2.655-5.689,5.689-5.689
		s5.689,2.655,5.689,5.689v12.516C332.61,480.142,329.956,482.797,326.922,482.797z"/>
	<path style="fill:#33363A;" d="M347.781,482.797c-3.034,0-5.689-2.655-5.689-5.689v-12.516c0-3.034,2.655-5.689,5.689-5.689
		s5.689,2.655,5.689,5.689v12.516C353.47,480.142,350.815,482.797,347.781,482.797z"/>
	<path style="fill:#33363A;" d="M387.603,486.21h-20.859c-3.034,0-5.689-2.655-5.689-5.689s2.655-5.689,5.689-5.689h20.859
		c3.034,0,5.689,2.655,5.689,5.689S390.637,486.21,387.603,486.21z"/>
	<path style="fill:#33363A;" d="M432.735,486.21h-20.48c-3.034,0-5.689-2.655-5.689-5.689s2.655-5.689,5.689-5.689h20.48
		c3.034,0,5.689,2.655,5.689,5.689S435.769,486.21,432.735,486.21z"/>
	<path style="fill:#33363A;" d="M453.594,486.21c-3.034,0-5.689-2.655-5.689-5.689s2.276-5.689,5.689-5.689h0.379
		c3.034,0,5.689,2.655,5.689,5.689S456.628,486.21,453.594,486.21z"/>
</g>
<path style="fill:#7F4109;" d="M367.502,83.437v74.714c0,56.889-45.89,102.779-102.779,102.779s-102.779-45.89-102.779-102.779
	V83.437c-28.065,26.927-45.132,64.853-45.132,106.572c0,81.92,66.37,147.911,147.911,147.911s147.911-66.37,147.911-147.911
	C412.634,148.29,395.188,110.364,367.502,83.437z"/>
<path style="fill:#AA5500;" d="M264.723,260.93c-56.889,0-102.779-45.89-102.779-102.779v-40.96V83.437
	c-23.135,22.376-29.582,52.338-34.513,86.092c9.861,72.059,62.198,127.431,136.913,127.431s127.052-55.372,136.913-127.431
	c-4.551-33.754-10.999-63.716-34.513-86.092v33.754v40.96C367.502,215.04,321.612,260.93,264.723,260.93z"/>
<g>
	<path style="fill:#33363A;" d="M264.723,266.619c-59.923,0-108.468-48.545-108.468-108.468V83.437c0-3.034,2.655-5.689,5.689-5.689
		c3.034,0,5.689,2.655,5.689,5.689v74.714c0,53.476,43.615,97.09,97.09,97.09s97.09-43.615,97.09-97.09V83.437
		c0-3.034,2.655-5.689,5.689-5.689s5.689,2.655,5.689,5.689v74.714C373.191,218.074,324.646,266.619,264.723,266.619z"/>
	<path style="fill:#33363A;" d="M264.723,343.609c-84.575,0-153.6-69.025-153.6-153.6c0-3.034,2.655-5.689,5.689-5.689
		c3.034,0,5.689,2.655,5.689,5.689c0,78.507,63.716,142.222,142.222,142.222s142.222-63.716,142.222-142.222
		c0-3.034,2.655-5.689,5.689-5.689s5.689,2.655,5.689,5.689C418.323,274.584,349.298,343.609,264.723,343.609z"/>
	<path style="fill:#33363A;" d="M235.141,233.244c-3.034,0-5.689-2.655-5.689-5.689v-10.24c0-3.034,2.655-5.689,5.689-5.689
		s5.689,2.655,5.689,5.689v10.24C240.83,230.59,238.175,233.244,235.141,233.244z"/>
	<path style="fill:#33363A;" d="M294.305,233.244c-3.034,0-5.689-2.655-5.689-5.689v-10.24c0-3.034,2.655-5.689,5.689-5.689
		s5.689,2.655,5.689,5.689v10.24C299.994,230.59,297.339,233.244,294.305,233.244z"/>
</g>
<g>
</g>
<g>
</g>
<g>
</g>
<g>
</g>
<g>
</g>
<g>
</g>
<g>
</g>
<g>
</g>
<g>
</g>
<g>
</g>
<g>
</g>
<g>
</g>
<g>
</g>
<g>
</g>
<g>
</g>
</svg>
